<svg width="2022" height="239" viewBox="0 0 2022 239" fill="none" xmlns="http://www.w3.org/2000/svg">
<path d="M655.015 42.895H556.529V56.9645H597.602V197.206H613.714V56.9645H655.015V42.895Z" fill="#DFE3E8"/>
<path d="M790.718 197.206V42.895H774.606V113.47H696.089V42.895H679.978V197.206H696.089V127.539H774.606V197.206H790.718Z" fill="#DFE3E8"/>
<path d="M915.302 56.9645V42.895H830.658V197.206H915.302V183.136H846.77V127.539H915.302V113.47H846.77V56.9645H915.302Z" fill="#DFE3E8"/>
<path d="M1056.9 109.067C1041.2 104.392 1025.82 98.22 1025.82 79.4304C1025.82 63.5908 1038.21 53.3337 1057.36 53.3337C1075.29 53.3337 1087.27 64.9978 1088.36 83.2882H1104.47C1103.24 56.8738 1084.36 39.2642 1056.86 39.2642C1029.08 39.2642 1009.66 55.7845 1009.66 79.4304C1009.66 110.429 1033.12 117.872 1060.26 126.495C1072.88 130.217 1092.03 135.89 1092.03 157.494C1092.03 175.012 1078.46 186.767 1058.22 186.767C1035.85 186.767 1021.1 172.879 1020.14 151.14H1004.03C1005.07 180.504 1026.41 200.837 1056.63 200.837C1087.95 200.837 1108.14 182.955 1108.14 155.224C1108.19 125.678 1080.91 116.828 1056.9 109.067Z" fill="#DFE3E8"/>
<path d="M1251.84 197.206V42.895H1235.72V113.47H1157.21V42.895H1141.09V197.206H1157.21V127.539H1235.72V197.206H1251.84Z" fill="#DFE3E8"/>
<path d="M1363.03 39.2642C1311.29 39.2642 1283.38 80.8827 1283.38 120.05C1283.38 159.218 1311.29 200.837 1363.03 200.837C1414.77 200.837 1442.68 159.218 1442.68 120.05C1442.68 80.8827 1414.77 39.2642 1363.03 39.2642ZM1363.03 186.767C1322.36 186.767 1300.4 152.41 1300.4 120.05C1300.4 87.6906 1322.36 53.3337 1363.03 53.3337C1403.56 53.3337 1425.44 87.6906 1425.44 120.05C1425.44 163.394 1393.3 186.767 1363.03 186.767Z" fill="#DFE3E8"/>
<path d="M1527.55 42.895H1474V197.206H1490.11V146.601H1527.55C1557.78 146.601 1579.75 124.725 1579.75 94.6346C1579.75 65.1339 1557.33 42.895 1527.55 42.895ZM1527.55 132.305H1490.11V56.9645H1527.55C1548.11 56.9645 1563.63 73.1672 1563.63 94.6346C1563.63 116.465 1548.48 132.305 1527.55 132.305Z" fill="#DFE3E8"/>
<path d="M1662.8 42.895H1609.25V197.206H1625.36V146.601H1662.8C1693.03 146.601 1715 124.725 1715 94.6346C1715 65.1339 1692.53 42.895 1662.8 42.895ZM1662.8 132.305H1625.36V56.9645H1662.8C1683.36 56.9645 1698.88 73.1672 1698.88 94.6346C1698.88 116.465 1683.68 132.305 1662.8 132.305Z" fill="#DFE3E8"/>
<path d="M1761.29 42.895H1744.5V197.206H1761.29V42.895Z" fill="#DFE3E8"/>
<path d="M1885.87 56.9645V42.895H1801.23V197.206H1885.87V183.136H1817.34V127.539H1885.87V113.47H1817.34V56.9645H1885.87Z" fill="#DFE3E8"/>
<path d="M1970.02 109.067C1954.31 104.392 1938.93 98.22 1938.93 79.4304C1938.93 63.5908 1951.32 53.3337 1970.47 53.3337C1988.4 53.3337 2000.38 64.9978 2001.47 83.2882H2017.58C2016.35 56.8738 1997.47 39.2642 1969.97 39.2642C1942.19 39.2642 1922.77 55.7845 1922.77 79.4304C1922.77 110.429 1946.23 117.872 1973.37 126.495C1985.99 130.217 2005.14 135.89 2005.14 157.494C2005.14 175.012 1991.57 186.767 1971.33 186.767C1948.96 186.767 1934.21 172.879 1933.25 151.14H1917.14C1918.19 180.504 1939.52 200.837 1969.74 200.837C2001.06 200.837 2021.26 182.955 2021.26 155.224C2021.35 125.678 1994.07 116.828 1970.02 109.067Z" fill="#DFE3E8"/>
<path d="M430.344 203.592C430.277 201.402 431.307 200.058 433.329 199.28C434.538 198.815 435.754 198.288 437.019 198.053C438.727 197.734 439.427 196.86 439.282 195.287C439.08 193.075 439.332 191.949 441.32 191.546C444.501 190.891 446.629 190.527 449.81 189.877C450.75 189.687 452.089 189.121 452.352 188.427C453.646 184.983 454.234 181.5 453.08 177.776C450.694 170.048 450.431 162.135 451.456 154.099C451.994 149.887 451.714 145.738 449.916 141.824C445.346 131.872 445.044 121.507 445.996 110.693C446.231 107.999 446.472 105.015 447.81 102.752C450.577 98.0651 450.941 93.2939 450.498 88.1419C449.826 80.3187 448.09 72.9323 443.039 66.4698C441.096 63.989 439.623 61.1778 437.77 58.6298C434.577 54.245 434.807 50.0506 438.201 45.9122C441.925 41.3706 445.548 36.745 449.434 32.3322C450.868 30.7082 450.75 29.7394 449.266 28.3786C448.751 27.9082 449.059 27.001 449.742 25.9986C448.146 24.4978 446.539 22.4482 444.938 20.953C444.87 20.8914 450.454 19.8834 453.142 19.4746C453.746 19.3794 454.642 19.2842 454.861 18.9034C456.362 16.2602 457.722 12.9842 459.134 10.2906C459.167 10.2234 459.391 10.229 459.43 10.2962C460.853 13.001 462.27 16.2714 463.703 18.9706C463.787 19.1274 464.017 19.2786 464.202 19.3066C467.321 19.7658 473.722 20.8858 473.649 20.9474C471.722 22.745 469.796 25.097 467.875 26.9002C468.648 27.421 469.034 27.8298 468.81 27.9978C466.464 29.8066 467.254 31.2682 468.872 33.0322C471.806 36.241 474.696 39.5058 477.39 42.8994C483.818 50.9802 483.942 52.9346 478.028 61.3402C472.747 68.8498 468.032 76.4435 467.511 85.8459C467.198 91.5299 466.257 97.0739 469.852 102.304C471.062 104.063 471.588 106.482 471.711 108.643C472.35 119.351 473.391 129.923 468.614 139.903C466.313 144.713 465.725 149.753 466.352 154.978C467.276 162.656 466.968 170.215 464.767 177.602C463.72 181.107 464.017 184.395 465.098 187.783C465.585 189.3 466.453 189.776 468.088 189.961C471.594 190.353 473.974 190.913 477.395 191.725C478.442 191.972 480.033 193.31 479.977 194.044C479.708 197.336 480.772 197.908 483.32 198.675C487.453 199.924 487.957 200.775 488.002 204.829C488.024 207.047 488.007 209.264 488.007 211.482C488.002 217.407 487.358 218.236 481.36 219.792C480.279 220.072 479.182 220.291 478.078 220.476C475.054 220.974 472.03 221.439 469.001 221.92C462.466 221.92 455.936 221.92 449.401 221.92C448.494 221.758 447.581 221.618 446.679 221.428C442.322 220.515 437.932 219.708 433.626 218.616C431.335 218.034 430.221 216.371 430.305 213.968C430.434 210.513 430.45 207.047 430.344 203.592ZM464.93 45.341C465.865 49.8434 465.49 54.3178 463.026 58.4058C461.872 60.3266 461.967 63.4626 463.423 64.5322C465.271 65.8874 467.438 65.7026 469.303 63.5242C471.812 60.5842 474.142 57.4762 476.258 54.2674C476.858 53.3546 476.942 51.5738 476.398 50.6386C473.85 46.2314 471.084 41.9306 468.133 37.249C467.192 36.8626 462.068 34.4938 459.486 33.217C459.397 33.1722 459.246 33.1442 459.162 33.189C456.227 34.6506 450.319 37.613 450.291 37.6186C450.28 37.5794 450.263 37.4338 450.269 37.4002C450.33 37.0474 450.392 36.7002 450.454 36.3474C450.062 36.5882 449.726 36.913 449.49 37.2938C446.545 42.0538 443.722 46.5058 441.079 51.0586C440.642 51.809 440.766 53.2762 441.27 54.0098C443.605 57.4034 446.041 60.7522 448.701 63.9218C450.224 65.7362 453.69 66.033 454.542 64.3698C455.359 62.7794 455.69 60.1586 454.838 58.7586C452.268 54.5474 452.19 50.1458 452.772 45.677C453.181 42.5578 455.734 40.693 458.691 40.5754C461.542 40.4746 464.297 42.3114 464.93 45.341Z" fill="#DFE3E8"/>
<path d="M127.182 38.4224C127.182 38.4224 124.792 39.1053 120.866 40.3003C120.183 38.081 119.159 35.5203 117.793 32.7889C113.354 24.2531 106.696 19.6439 98.8436 19.6439C98.3314 19.6439 97.8193 19.6439 97.1364 19.8146C96.9657 19.4731 96.6243 19.3024 96.4536 18.961C93.0393 15.2053 88.6007 13.4981 83.3086 13.6689C73.0657 14.0103 62.8229 21.351 54.6286 34.496C48.8243 43.7146 44.3857 55.3231 43.1907 64.371C31.4114 67.956 23.2171 70.5167 23.0464 70.6874C17.0714 72.5653 16.9007 72.736 16.2179 78.3696C15.7057 82.6374 0 202.82 0 202.82L129.06 225.184V38.2517C128.036 38.2517 127.524 38.4224 127.182 38.4224ZM97.3071 47.641C90.4786 49.6896 82.9671 52.0796 75.6264 54.2989C77.675 46.2753 81.7721 38.2517 86.5521 32.9596C88.43 31.0817 90.9907 28.8624 93.8929 27.4967C96.795 33.6424 97.4779 42.0074 97.3071 47.641ZM83.3086 20.6681C85.6986 20.6681 87.7471 21.1803 89.4543 22.2046C86.7229 23.5703 83.9914 25.7896 81.4307 28.3503C74.9436 35.3496 69.9929 46.2753 67.9443 56.6889C61.7986 58.5667 55.6529 60.4446 50.0193 62.1517C53.775 45.7631 67.6029 21.0096 83.3086 20.6681ZM63.5057 114.561C64.1886 125.487 93.0393 127.877 94.7464 153.655C95.9414 173.97 83.9914 187.797 66.7493 188.822C45.9221 190.187 34.4843 177.896 34.4843 177.896L38.9229 159.117C38.9229 159.117 50.3607 167.824 59.5793 167.141C65.5543 166.8 67.7736 161.849 67.6029 158.435C66.7493 144.095 43.1907 144.948 41.6543 121.39C40.2886 101.587 53.2629 81.6131 81.9429 79.7353C93.0393 79.0524 98.6729 81.7839 98.6729 81.7839L92.1857 106.367C92.1857 106.367 84.845 102.952 76.1386 103.635C63.5057 104.489 63.335 112.512 63.5057 114.561ZM104.136 45.5924C104.136 40.471 103.453 33.1303 101.063 26.9846C108.916 28.521 112.671 37.2274 114.379 42.5196C111.306 43.3731 107.891 44.3974 104.136 45.5924Z" fill="#DFE3E8"/>
<path d="M132.987 224.842L186.591 211.527C186.591 211.527 163.544 55.6646 163.374 54.6403C163.203 53.616 162.349 52.9332 161.496 52.9332C160.642 52.9332 145.619 52.5917 145.619 52.5917C145.619 52.5917 136.401 43.7146 132.987 40.3003V224.842Z" fill="#DFE3E8"/>
<line opacity="0.5" x1="304.664" y1="1.09278e-07" x2="304.664" y2="239" stroke="#DFE3E8" stroke-width="5"/>
</svg>
